# xmcd
#
# Track frame offsets: 
#        150
#        18506
#        44094
#        64342
#        85046
#        103104
#        118761
#        144561
#        163126
#        185343
#
# Disc length: 2880 seconds
#
# Revision: 0
# Processed by: cddbd v1.5.2PL0 Copyright (c) Steve Scherf et al.
# Submitted via: ExactAudioCopyFreeDBPlugin 1.0
#
DISCID=8e0b3e0a
DTITLE=Key Grip - Cuts and Takes
DYEAR=2011
DGENRE=
TTITLE0=Fools And Thieves
TTITLE1=The First Thing
TTITLE2=Dying Habit
TTITLE3=Funked
TTITLE4=What Kinda Woman Is This?
TTITLE5=Buzz Me
TTITLE6=Mother Earth
TTITLE7=Stand By
TTITLE8=You're In For A Big Surprise
TTITLE9=Over And Over
EXTD=
EXTT0=
EXTT1=
EXTT2=
EXTT3=
EXTT4=
EXTT5=
EXTT6=
EXTT7=
EXTT8=
EXTT9=
PLAYORDER=
